<?xml version="1.0" standalone="no"?>
<!DOCTYPE svg PUBLIC "-//W3C//DTD SVG 20010904//EN"
 "http://www.w3.org/TR/2001/REC-SVG-20010904/DTD/svg10.dtd">
<svg version="1.0" xmlns="http://www.w3.org/2000/svg"
 width="259.000000pt" height="194.000000pt" viewBox="0 0 259.000000 194.000000"
 preserveAspectRatio="xMidYMid meet">
<metadata>
Created by potrace 1.16, written by Peter Selinger 2001-2019
</metadata>
<g transform="translate(0.000000,194.000000) scale(0.100000,-0.100000)"
fill="#000000" stroke="none">
<path d="M1395 1468 c-11 -6 -39 -29 -62 -50 -26 -26 -46 -37 -54 -33 -8 5
-10 4 -5 -3 4 -7 3 -12 -3 -12 -5 0 -11 3 -14 8 -2 4 -3 2 -1 -5 3 -11 -67
-81 -75 -75 -2 2 -9 -7 -15 -20 -6 -13 -24 -29 -39 -36 -35 -17 -31 -25 77
-132 l86 -85 140 140 140 140 0 50 c-1 53 -23 91 -67 114 -27 14 -82 14 -108
-1z"/>
<path d="M829 1235 c-27 -14 -59 -69 -59 -100 0 -26 19 -57 68 -107 l46 -48
-46 -47 c-25 -27 -51 -58 -57 -70 -39 -76 30 -173 123 -173 37 0 47 8 180 140
l141 140 -52 51 c-29 28 -57 48 -63 44 -6 -4 -9 -1 -8 7 2 7 -2 12 -9 11 -7
-2 -10 3 -7 11 5 14 -44 53 -61 47 -5 -1 -7 1 -2 5 9 10 -23 45 -35 38 -4 -3
-7 0 -6 8 2 7 -3 12 -10 10 -8 -1 -11 2 -8 7 9 14 -40 41 -76 41 -18 -1 -45
-7 -59 -15z"/>
<path d="M1634 1234 c-17 -8 -48 -33 -70 -55 l-39 -41 88 -84 89 -85 32 28
c102 87 102 197 0 239 -42 18 -61 17 -100 -2z"/>
<path d="M1159 777 c-69 -67 -131 -132 -137 -144 -26 -48 -6 -125 40 -155 63
-41 111 -31 185 38 l58 53 43 -42 c36 -35 44 -39 53 -27 8 12 9 12 7 -4 -2
-10 3 -21 11 -24 9 -3 11 0 6 9 -6 11 -5 12 6 2 25 -24 69 -15 105 21 28 28
34 41 34 77 0 41 -4 46 -137 181 -75 76 -140 138 -143 138 -3 -1 -62 -56 -131
-123z"/>
</g>
</svg>
